<svg width="32" height="32" viewBox="0 0 32 32" fill="none" xmlns="http://www.w3.org/2000/svg">
<path d="M15.1111 24.8889C16.0944 24.8889 16.8889 24.0944 16.8889 23.1111C16.8889 22.1278 16.0944 21.3333 15.1111 21.3333H8.88888C7.90554 21.3333 7.1111 20.5389 7.1111 19.5556V12.4444H8.88888C9.60554 12.4444 10.2555 12.0111 10.5333 11.3444C10.8111 10.6778 10.6555 9.91666 10.15 9.40555L6.59443 5.85C5.89999 5.15555 4.77221 5.15555 4.07776 5.85L0.522208 9.40555C0.0110972 9.91666 -0.138903 10.6778 0.138875 11.3444C0.416653 12.0111 1.0611 12.4444 1.78332 12.4444H3.5611V19.5556C3.5611 22.5 5.94999 24.8889 8.89443 24.8889H15.1111ZM16.8889 7.11111C15.9055 7.11111 15.1111 7.90555 15.1111 8.88888C15.1111 9.87222 15.9055 10.6667 16.8889 10.6667H23.1111C24.0944 10.6667 24.8889 11.4611 24.8889 12.4444V19.5556H23.1111C22.3944 19.5556 21.7444 19.9889 21.4667 20.6556C21.1889 21.3222 21.3444 22.0833 21.85 22.5944L25.4055 26.15C26.1 26.8444 27.2278 26.8444 27.9222 26.15L31.4778 22.5944C31.9889 22.0833 32.1389 21.3222 31.8611 20.6556C31.5833 19.9889 30.9389 19.5556 30.2167 19.5556H28.4389V12.4444C28.4389 9.5 26.05 7.11111 23.1055 7.11111H16.8889Z" fill="black"/>
</svg>
