<svg width="32" height="32" viewBox="0 0 32 32" fill="none" xmlns="http://www.w3.org/2000/svg">
<path fill-rule="evenodd" clip-rule="evenodd" d="M23.3333 12.536C26 14.076 26 17.924 23.3333 19.464L11.3333 26.392C8.66668 27.932 5.33334 26.008 5.33334 22.928V9.07201C5.33334 5.99201 8.66668 4.06801 11.3333 5.60801L23.3333 12.536ZM28 6.66668C28 6.31306 27.8595 5.97392 27.6095 5.72387C27.3594 5.47382 27.0203 5.33334 26.6667 5.33334C26.3131 5.33334 25.9739 5.47382 25.7239 5.72387C25.4738 5.97392 25.3333 6.31306 25.3333 6.66668V25.3333C25.3333 25.687 25.4738 26.0261 25.7239 26.2762C25.9739 26.5262 26.3131 26.6667 26.6667 26.6667C27.0203 26.6667 27.3594 26.5262 27.6095 26.2762C27.8595 26.0261 28 25.687 28 25.3333V6.66668Z" fill="black"/>
</svg>
