<svg width="32" height="32" viewBox="0 0 32 32" fill="none" xmlns="http://www.w3.org/2000/svg">
<path d="M12 5.33331H9.33334C8.62609 5.33331 7.94782 5.61426 7.44772 6.11436C6.94762 6.61446 6.66667 7.29274 6.66667 7.99998V24C6.66667 24.7072 6.94762 25.3855 7.44772 25.8856C7.94782 26.3857 8.62609 26.6666 9.33334 26.6666H12C12.7072 26.6666 13.3855 26.3857 13.8856 25.8856C14.3857 25.3855 14.6667 24.7072 14.6667 24V7.99998C14.6667 7.29274 14.3857 6.61446 13.8856 6.11436C13.3855 5.61426 12.7072 5.33331 12 5.33331ZM22.6667 5.33331H20C19.2928 5.33331 18.6145 5.61426 18.1144 6.11436C17.6143 6.61446 17.3333 7.29274 17.3333 7.99998V24C17.3333 24.7072 17.6143 25.3855 18.1144 25.8856C18.6145 26.3857 19.2928 26.6666 20 26.6666H22.6667C23.3739 26.6666 24.0522 26.3857 24.5523 25.8856C25.0524 25.3855 25.3333 24.7072 25.3333 24V7.99998C25.3333 7.29274 25.0524 6.61446 24.5523 6.11436C24.0522 5.61426 23.3739 5.33331 22.6667 5.33331Z" fill="#738EAB"/>
</svg>
