<svg width="32" height="32" viewBox="0 0 32 32" fill="none" xmlns="http://www.w3.org/2000/svg">
<path fill-rule="evenodd" clip-rule="evenodd" d="M20.6667 26.392L8.66667 19.464C6 17.924 6 14.076 8.66667 12.536L20.6667 5.60801C23.3333 4.06801 26.6667 5.99201 26.6667 9.07201V22.928C26.6667 26.008 23.3333 27.932 20.6667 26.392ZM4 25.3333C4 25.687 4.14048 26.0261 4.39052 26.2762C4.64057 26.5262 4.97971 26.6667 5.33333 26.6667C5.68696 26.6667 6.02609 26.5262 6.27614 26.2762C6.52619 26.0261 6.66667 25.687 6.66667 25.3333V6.66668C6.66667 6.31306 6.52619 5.97392 6.27614 5.72387C6.02609 5.47382 5.68696 5.33334 5.33333 5.33334C4.97971 5.33334 4.64057 5.47382 4.39052 5.72387C4.14048 5.97392 4 6.31306 4 6.66668V25.3333Z" fill="black"/>
</svg>
