<svg width="32" height="32" viewBox="0 0 32 32" fill="none" xmlns="http://www.w3.org/2000/svg">
<path d="M21.9926 4.78644C19.4129 4.78644 17.2086 6.62521 15.9975 7.8929C14.7865 6.62521 12.5871 4.78644 10.0086 4.78644C5.56431 4.78644 2.46154 7.88428 2.46154 12.3187C2.46154 17.2049 6.31507 20.3631 10.0431 23.4178C11.8031 24.8615 13.6246 26.3532 15.0215 28.0074C15.2566 28.2843 15.6012 28.4443 15.9631 28.4443H16.0345C16.3975 28.4443 16.7409 28.2831 16.9748 28.0074C18.3742 26.3532 20.1945 24.8603 21.9557 23.4178C25.6825 20.3643 29.5385 17.2061 29.5385 12.3187C29.5385 7.88428 26.4357 4.78644 21.9926 4.78644Z" fill="#FF0000"/>
</svg>
